<svg xmlns="http://www.w3.org/2000/svg" viewBox="0 0 658.05 135.94"><defs><style>.cls-1{fill:#fff;}.cls-2{fill:#97bcf2;}</style></defs><title>AMS v1 Dark</title><g id="Layer_2" data-name="Layer 2"><g id="AMS_v1_Dark" data-name="AMS v1 Dark"><path class="cls-1" d="M0,133.27,53.22,2.61H67l53.22,130.66H102.93L87.33,93.92H32.69l-15.6,39.35ZM60,22.92q-8.74,24.4-16.7,44.34l-4.88,12.3h43.3l-5-12.29Q68.69,47,60.35,22.92Z"/><path class="cls-1" d="M209.47,133.27h-7.32l-32.91-78q-6.84-16.11-13.67-35.06h-.78q1.36,27.24,1.36,49.9v63.18H140.23V2.61h23L194,76.54q5.27,12.69,11.62,30.56h.49q7-19.81,11.62-30.56L248.44,2.61h22.95V133.27H255.47V70.09q0-22.17,1.37-49.9h-.78q-7.23,20-13.68,35.06Z"/><path class="cls-1" d="M317.29,37.18a17.72,17.72,0,0,0,2.33,9.52,19,19,0,0,0,6.28,6.2,37.92,37.92,0,0,0,9.16,4q5.2,1.56,10.86,2.93,7.59,1.84,14.94,4.1a47.3,47.3,0,0,1,13.1,6.2,30.27,30.27,0,0,1,9.3,10.3q3.56,6.36,3.56,16.31A37.48,37.48,0,0,1,383,114.28a33.41,33.41,0,0,1-10.65,12.11,47.85,47.85,0,0,1-16.07,7,84.56,84.56,0,0,1-20.31,2.3,88.46,88.46,0,0,1-10.4-.64,100.94,100.94,0,0,1-10.16-1.71,76.29,76.29,0,0,1-8.74-2.44,33.48,33.48,0,0,1-6.15-2.73V113.65a61,61,0,0,0,7.91,3.22,87.08,87.08,0,0,0,9.08,2.49c3.13.68,6.28,1.22,9.47,1.61a74.39,74.39,0,0,0,9,.59,69.5,69.5,0,0,0,13-1.18,33.94,33.94,0,0,0,10.88-3.9,20.17,20.17,0,0,0,7.43-7.47A23.5,23.5,0,0,0,370,97.14a18,18,0,0,0-2.39-9.67,19.84,19.84,0,0,0-6.4-6.29A38,38,0,0,0,352,77.12q-5.22-1.56-11-2.93-7.62-1.75-14.9-4a46.65,46.65,0,0,1-13-6.11,29.54,29.54,0,0,1-9.18-10q-3.48-6.16-3.47-15.73a37.47,37.47,0,0,1,3.64-17.14A33.81,33.81,0,0,1,314,9.35a42.16,42.16,0,0,1,14.33-6.93A64.39,64.39,0,0,1,345.61.17a90.26,90.26,0,0,1,19.48,2A93.38,93.38,0,0,1,381.64,7.4V22.14a113,113,0,0,0-16.75-5.56,79.1,79.1,0,0,0-18.5-2.25,46,46,0,0,0-12.89,1.61,25.56,25.56,0,0,0-9.09,4.59A18.54,18.54,0,0,0,319,27.76,24.43,24.43,0,0,0,317.29,37.18Z"/><path class="cls-2" d="M444.14,33.88v1.57h-9.51V33.88h3.71L448.49,6.77H450l9.53,27.11h3.87v1.57h-12V33.88h4.07l-2.93-8.34h-9.22l-3.11,8.34ZM448.06,13l-4.12,11H452l-3.87-11Z"/><path class="cls-2" d="M481.09,33.88H484v1.57h-6.44V33.08h-.08a6.46,6.46,0,0,1-1.11,1.4,5.4,5.4,0,0,1-1.26.9,4.92,4.92,0,0,1-1.38.48,8,8,0,0,1-1.47.13,7.61,7.61,0,0,1-3.3-.69,7.4,7.4,0,0,1-2.44-1.87A8.16,8.16,0,0,1,465,30.66a11.2,11.2,0,0,1,.05-6.9,8.34,8.34,0,0,1,1.61-2.86,7.61,7.61,0,0,1,2.5-1.92,7.32,7.32,0,0,1,3.23-.7,6.17,6.17,0,0,1,3,.71,5.52,5.52,0,0,1,2.07,2h.08V8.63h-3.13V7.07h6.64Zm-12.71-6.71a17.36,17.36,0,0,0,.31,3.64,6.22,6.22,0,0,0,.88,2.22,2.89,2.89,0,0,0,1.36,1.12,4.78,4.78,0,0,0,1.72.3,4.28,4.28,0,0,0,2.44-.64,4.66,4.66,0,0,0,1.5-1.7,7.69,7.69,0,0,0,.77-2.4,17.51,17.51,0,0,0,.22-2.72,13,13,0,0,0-.37-3.37,6.18,6.18,0,0,0-1-2.22,3.77,3.77,0,0,0-1.53-1.21,5.34,5.34,0,0,0-3.69-.08,3,3,0,0,0-1.38,1.11,6,6,0,0,0-.91,2.23A17.18,17.18,0,0,0,468.38,27.17Z"/><path class="cls-2" d="M494.12,35.72l-6.9-15.35h-2.91V18.81h9.5v1.56h-2.74l4.85,10.84H496l4.83-10.84h-2.74V18.81h7.23v1.56h-2.85l-6.78,15.35Z"/><path class="cls-2" d="M512.24,33.88h2.93v1.57H505.8V33.88h2.93V20.37H505.8V18.81h6.44ZM510.49,13.3a2.52,2.52,0,0,1-.93-.17,2.15,2.15,0,0,1-.74-.48,2.07,2.07,0,0,1-.5-.73,2.37,2.37,0,0,1-.18-.95,2.21,2.21,0,0,1,.19-.93,2.29,2.29,0,0,1,.5-.75,2.11,2.11,0,0,1,.74-.48,2.32,2.32,0,0,1,.92-.18,2.49,2.49,0,0,1,.91.17,2.37,2.37,0,0,1,.76.47,2.17,2.17,0,0,1,.49.74,2.35,2.35,0,0,1,.18.94,2.25,2.25,0,0,1-.19,1,2.23,2.23,0,0,1-.49.73,2.1,2.1,0,0,1-.75.48A2.31,2.31,0,0,1,510.49,13.3Z"/><path class="cls-2" d="M528.77,24.33a8.44,8.44,0,0,0-.42-2.14,3.94,3.94,0,0,0-.87-1.43,3.18,3.18,0,0,0-1.32-.79,5.91,5.91,0,0,0-1.77-.25,6.13,6.13,0,0,0-1.4.15,3.65,3.65,0,0,0-1.12.45,2.21,2.21,0,0,0-.73.79,2.41,2.41,0,0,0-.26,1.17,2.37,2.37,0,0,0,.24,1.13,2.22,2.22,0,0,0,.8.78,7.79,7.79,0,0,0,1.43.65c.58.21,1.29.46,2.14.74q1,.36,2,.75a7.87,7.87,0,0,1,1.79,1,4.78,4.78,0,0,1,1.27,1.42,3.88,3.88,0,0,1,.49,2,4.43,4.43,0,0,1-.6,2.34,5.11,5.11,0,0,1-1.6,1.64,7.47,7.47,0,0,1-2.27,1A10.76,10.76,0,0,1,524,36c-.47,0-1,0-1.49-.07s-1-.13-1.56-.22-1-.2-1.47-.32-.87-.25-1.22-.38l-.14-5.67h1.35a11.07,11.07,0,0,0,.42,2.49,4.34,4.34,0,0,0,.9,1.62,3.08,3.08,0,0,0,1.41.85,6.6,6.6,0,0,0,1.94.26,7.48,7.48,0,0,0,1.55-.15,3.73,3.73,0,0,0,1.24-.47,2.26,2.26,0,0,0,.83-.85,2.51,2.51,0,0,0,.3-1.27,2.11,2.11,0,0,0-.23-1.06,2.2,2.2,0,0,0-.74-.75,7,7,0,0,0-1.31-.63l-1.91-.68c-.75-.26-1.46-.53-2.14-.81a7.68,7.68,0,0,1-1.81-1,4.5,4.5,0,0,1-1.25-1.43,4.2,4.2,0,0,1-.47-2.05,4.55,4.55,0,0,1,.55-2.3,4.8,4.8,0,0,1,1.45-1.59,6.49,6.49,0,0,1,2.09-.92,10.46,10.46,0,0,1,2.45-.29,12.73,12.73,0,0,1,1.35.07c.47,0,.94.1,1.4.18s.9.17,1.33.27.81.19,1.16.28l.14,5.25Z"/><path class="cls-2" d="M534.18,27.28a10.48,10.48,0,0,1,.57-3.47,8.42,8.42,0,0,1,1.69-2.87,8,8,0,0,1,2.73-2,9,9,0,0,1,3.66-.71,8.81,8.81,0,0,1,3.59.69A7.33,7.33,0,0,1,549,20.86a8.09,8.09,0,0,1,1.59,2.77,10.73,10.73,0,0,1,0,6.84,8.2,8.2,0,0,1-1.69,2.87,7.89,7.89,0,0,1-2.72,1.94,9.76,9.76,0,0,1-7.26,0,7.48,7.48,0,0,1-2.61-1.88,8,8,0,0,1-1.6-2.78A10.56,10.56,0,0,1,534.18,27.28ZM538,27.2a17.42,17.42,0,0,0,.3,3.54A6.19,6.19,0,0,0,539.2,33a3.1,3.1,0,0,0,1.42,1.18,5.43,5.43,0,0,0,2,.34,5.52,5.52,0,0,0,2-.35,3.3,3.3,0,0,0,1.46-1.2,6.33,6.33,0,0,0,.89-2.29,18.07,18.07,0,0,0,.3-3.6,17.51,17.51,0,0,0-.29-3.54,6.39,6.39,0,0,0-.86-2.24,3.12,3.12,0,0,0-1.44-1.19,5.55,5.55,0,0,0-2-.34,5.44,5.44,0,0,0-2,.35,3.24,3.24,0,0,0-1.45,1.21,6.2,6.2,0,0,0-.89,2.28A18,18,0,0,0,538,27.2Z"/><path class="cls-2" d="M563.47,35.45H553.9V33.88h2.93V20.37H553.9V18.81h6.45v3h.08a6.76,6.76,0,0,1,2-2.5,5.22,5.22,0,0,1,1.33-.72,4.13,4.13,0,0,1,1.42-.25,2.79,2.79,0,0,1,1.94.68,2.45,2.45,0,0,1,.76,1.9,2.26,2.26,0,0,1-.59,1.66,2,2,0,0,1-1.52.6,1.9,1.9,0,0,1-1.49-.57,2,2,0,0,1-.52-1.42,3.31,3.31,0,0,1,.17-1,4.12,4.12,0,0,0-1.41.87,5.73,5.73,0,0,0-1.15,1.5,8.59,8.59,0,0,0-.76,2.08,11.72,11.72,0,0,0-.27,2.62v6.58h3.12Z"/><path class="cls-2" d="M583.94,20.37h-2.73V18.81h7.3v1.56h-2.89l-7.54,17.07c-.78,1.78-1.46,3.26-2.06,4.42a19.59,19.59,0,0,1-1.65,2.78,5,5,0,0,1-1.48,1.43,3,3,0,0,1-1.56.41,3.37,3.37,0,0,1-1.19-.2,2.75,2.75,0,0,1-.87-.55,2.13,2.13,0,0,1-.55-.79,2.3,2.3,0,0,1-.19-.92,2.45,2.45,0,0,1,.14-.8,2,2,0,0,1,.41-.69,2,2,0,0,1,1.54-.68,2,2,0,0,1,.84.17,1.68,1.68,0,0,1,.62.45,2.14,2.14,0,0,1,.37.64,2.36,2.36,0,0,1,.13.75,2.09,2.09,0,0,1,0,.41l.08,0a10.35,10.35,0,0,0,1.86-2.92c.74-1.49,1.63-3.42,2.69-5.81l-6.82-15.19h-3V18.81h9.53v1.56H574.2L579,31.21h.08Z"/><path class="cls-2" d="M624.13,38a7.09,7.09,0,0,1-3-.63,10.67,10.67,0,0,1-2.88-2,13,13,0,0,1-3.31,2,10.14,10.14,0,0,1-3.82.72,10.48,10.48,0,0,1-3.34-.54,9,9,0,0,1-2.88-1.59,7.92,7.92,0,0,1-2-2.52,7.24,7.24,0,0,1-.78-3.39,7,7,0,0,1,.65-3.09,8.25,8.25,0,0,1,1.66-2.32,11.22,11.22,0,0,1,2.27-1.72c.84-.48,1.67-.91,2.48-1.29-.24-.5-.46-1-.68-1.51s-.41-1-.57-1.55a10.78,10.78,0,0,1-.4-1.53,7.64,7.64,0,0,1-.15-1.47,6,6,0,0,1,.5-2.43,6.45,6.45,0,0,1,1.38-2,6.93,6.93,0,0,1,4.92-1.93,7.45,7.45,0,0,1,2.17.32,5.17,5.17,0,0,1,1.84,1A4.73,4.73,0,0,1,619.47,12,5.18,5.18,0,0,1,620,14.3a5.22,5.22,0,0,1-.59,2.55,6.59,6.59,0,0,1-1.55,1.87,12.17,12.17,0,0,1-2.21,1.43c-.83.43-1.67.84-2.53,1.24q.58,1.09,1.44,2.49c.56.93,1.15,1.87,1.77,2.81s1.21,1.84,1.8,2.69,1.12,1.55,1.57,2.11a17.4,17.4,0,0,0,1.36-2,19.17,19.17,0,0,0,1.06-2.13,17,17,0,0,0,.7-2.08,10.15,10.15,0,0,0,.32-1.91H619V21.78h9.43v1.57h-3.57a20.61,20.61,0,0,1-1.42,4.91,19.81,19.81,0,0,1-2.66,4.54A10.61,10.61,0,0,0,623.29,35a4.56,4.56,0,0,0,2.24.64,4.76,4.76,0,0,0,1.76-.35,9.22,9.22,0,0,0,1.82-1,6.6,6.6,0,0,1,.46.49c.12.16.25.35.4.59a9.24,9.24,0,0,1-3,2.09A7.67,7.67,0,0,1,624.13,38Zm-7-3.92c-.32-.37-.69-.82-1.1-1.35s-.84-1.12-1.29-1.76-.9-1.31-1.36-2-.89-1.41-1.31-2.11-.82-1.37-1.19-2-.69-1.24-1-1.78a12.14,12.14,0,0,0-1.56,1.16,6.64,6.64,0,0,0-1.25,1.4,6.28,6.28,0,0,0-.83,1.75,7.83,7.83,0,0,0,.23,5,6,6,0,0,0,1.41,2,5.77,5.77,0,0,0,2,1.2,6.4,6.4,0,0,0,2.23.4,6.55,6.55,0,0,0,2.61-.53A10.53,10.53,0,0,0,617.13,34.07Zm.18-19.83a4.43,4.43,0,0,0-.27-1.62,3.35,3.35,0,0,0-.73-1.12,2.82,2.82,0,0,0-1-.65,3.49,3.49,0,0,0-1.24-.22,3.81,3.81,0,0,0-1.36.24,3.3,3.3,0,0,0-1.86,1.85,3.75,3.75,0,0,0-.28,1.5A8.84,8.84,0,0,0,611,16.7a21.3,21.3,0,0,0,1.44,3.4,16.82,16.82,0,0,0,1.93-1.05,7.88,7.88,0,0,0,1.55-1.26,5.26,5.26,0,0,0,1-1.56A5,5,0,0,0,617.31,14.24Z"/><path class="cls-2" d="M461.9,80.55V55.81h-.1l-10.16,26.6H450.1l-9.53-26.56h-.1v24.7H444v1.56h-9.18V80.55h3.9V55.3h-3.9V53.74h9L452,76.33h.08l8.67-22.59h8.87V55.3H465.7V80.55h3.91v1.56H458.38V80.55Z"/><path class="cls-2" d="M489.06,82.11a11.16,11.16,0,0,1-1.52.2c-.47,0-.84,0-1.11,0a7.34,7.34,0,0,1-1.71-.17,2.73,2.73,0,0,1-1.07-.48,1.68,1.68,0,0,1-.56-.76,3.41,3.41,0,0,1-.22-1h-.1a7.32,7.32,0,0,1-1.17,1.29,5.6,5.6,0,0,1-1.31.84,6.41,6.41,0,0,1-1.39.44,7,7,0,0,1-1.44.14,6.71,6.71,0,0,1-2.13-.32,4.62,4.62,0,0,1-1.58-.91,3.86,3.86,0,0,1-1-1.4,4.66,4.66,0,0,1-.33-1.78,4.46,4.46,0,0,1,2.67-4.13,17.45,17.45,0,0,1,7.68-1.52c0-.58,0-1.11,0-1.58s0-.93,0-1.39a3.41,3.41,0,0,0-.73-2.49,3.24,3.24,0,0,0-2.31-.71,6.83,6.83,0,0,0-1.89.24,4.18,4.18,0,0,0-1.36.62,3,3,0,0,1,.7.95,2.36,2.36,0,0,1,.22,1,1.85,1.85,0,0,1-.53,1.37,1.88,1.88,0,0,1-1.44.55,2.42,2.42,0,0,1-.76-.12,1.75,1.75,0,0,1-.65-.37,1.93,1.93,0,0,1-.44-.63,2.24,2.24,0,0,1-.16-.89,3,3,0,0,1,.44-1.56,4.14,4.14,0,0,1,1.31-1.33,7.07,7.07,0,0,1,2.16-.94,11.5,11.5,0,0,1,3-.35,10.32,10.32,0,0,1,2.49.27,4.55,4.55,0,0,1,1.84.91,3.8,3.8,0,0,1,1.13,1.69,7.85,7.85,0,0,1,.38,2.62c0,.26,0,.68,0,1.27s0,1.25,0,2,0,1.44,0,2.17,0,1.39,0,2,0,1,0,1.43a2.62,2.62,0,0,0,.2.92.94.94,0,0,0,.47.49,2,2,0,0,0,.87.15,9,9,0,0,0,1.29-.12Zm-6.27-8a20.63,20.63,0,0,0-3.43.32,5.77,5.77,0,0,0-2,.74,2.4,2.4,0,0,0-1,1.16,4.49,4.49,0,0,0-.26,1.57,3.47,3.47,0,0,0,.64,2.27,2.17,2.17,0,0,0,1.75.75,4.39,4.39,0,0,0,2.77-1.08,4.47,4.47,0,0,0,1.1-1.51,5.38,5.38,0,0,0,.44-2.33Z"/><path class="cls-2" d="M497.46,80.55h2.64v1.56H491V80.55H494V67H491V65.47h6.44v2.84h.08a6.05,6.05,0,0,1,2.15-2.49,6.32,6.32,0,0,1,3.48-.87,5.28,5.28,0,0,1,4,1.37,5.51,5.51,0,0,1,1.31,3.94V80.55h2.83v1.56h-9V80.55h2.63V69.71a3.12,3.12,0,0,0-.72-2.27,2.72,2.72,0,0,0-2-.74,4.19,4.19,0,0,0-1.86.42,4.07,4.07,0,0,0-1.49,1.3,7.11,7.11,0,0,0-1,2.25,12.78,12.78,0,0,0-.37,3.24Z"/><path class="cls-2" d="M530.35,82.11a11.16,11.16,0,0,1-1.52.2c-.47,0-.84,0-1.11,0a7.34,7.34,0,0,1-1.71-.17,2.73,2.73,0,0,1-1.07-.48,1.68,1.68,0,0,1-.56-.76,3.41,3.41,0,0,1-.22-1h-.1a7.32,7.32,0,0,1-1.17,1.29,5.81,5.81,0,0,1-1.31.84,6.41,6.41,0,0,1-1.39.44,7,7,0,0,1-1.44.14,6.71,6.71,0,0,1-2.13-.32,4.62,4.62,0,0,1-1.58-.91,3.86,3.86,0,0,1-1-1.4,4.66,4.66,0,0,1-.33-1.78,4.46,4.46,0,0,1,2.67-4.13,17.42,17.42,0,0,1,7.68-1.52c0-.58,0-1.11,0-1.58s0-.93,0-1.39a3.41,3.41,0,0,0-.73-2.49,3.24,3.24,0,0,0-2.31-.71,6.78,6.78,0,0,0-1.89.24,4.08,4.08,0,0,0-1.36.62,3,3,0,0,1,.7.95,2.36,2.36,0,0,1,.22,1,1.85,1.85,0,0,1-.53,1.37,1.88,1.88,0,0,1-1.44.55A2.42,2.42,0,0,1,516,71a1.67,1.67,0,0,1-.65-.37,1.93,1.93,0,0,1-.44-.63,2.24,2.24,0,0,1-.16-.89,3,3,0,0,1,.44-1.56,4.2,4.2,0,0,1,1.3-1.33,7.24,7.24,0,0,1,2.17-.94,11.5,11.5,0,0,1,3-.35,10.32,10.32,0,0,1,2.49.27,4.61,4.61,0,0,1,1.84.91,3.88,3.88,0,0,1,1.13,1.69,7.85,7.85,0,0,1,.38,2.62c0,.26,0,.68,0,1.27s0,1.25,0,2,0,1.44,0,2.17,0,1.39,0,2,0,1,0,1.43a2.62,2.62,0,0,0,.2.92,1,1,0,0,0,.46.49,2.11,2.11,0,0,0,.88.15,9,9,0,0,0,1.29-.12Zm-6.27-8a20.52,20.52,0,0,0-3.43.32,5.91,5.91,0,0,0-2,.74,2.43,2.43,0,0,0-1,1.16,4.49,4.49,0,0,0-.26,1.57,3.47,3.47,0,0,0,.64,2.27,2.16,2.16,0,0,0,1.75.75,4.39,4.39,0,0,0,2.77-1.08,4.47,4.47,0,0,0,1.1-1.51,5.38,5.38,0,0,0,.44-2.33Z"/><path class="cls-2" d="M535.61,86.33a4.32,4.32,0,0,0-.49,1.06,3.2,3.2,0,0,0-.16,1,2.51,2.51,0,0,0,.39,1.39,3.29,3.29,0,0,0,1.1,1,5.47,5.47,0,0,0,1.67.61,10,10,0,0,0,2.12.21,10.14,10.14,0,0,0,2.82-.37,6.65,6.65,0,0,0,2.1-1,4.65,4.65,0,0,0,1.31-1.54,4.18,4.18,0,0,0,.45-1.92,2.71,2.71,0,0,0-.31-1.36,2,2,0,0,0-.85-.82,3.75,3.75,0,0,0-1.3-.4,10.54,10.54,0,0,0-1.65-.11h-1.44c-.54,0-1,0-1.54,0l-1.33,0h-.82a5.82,5.82,0,0,1-1.93-.28,3.69,3.69,0,0,1-1.35-.76,3,3,0,0,1-.82-1.15,4,4,0,0,1-.26-1.43,5.71,5.71,0,0,1,.47-2.18A8.12,8.12,0,0,1,535.31,76a6.18,6.18,0,0,1-1.25-2,7.12,7.12,0,0,1,0-5,6.2,6.2,0,0,1,3.55-3.55,7.82,7.82,0,0,1,3-.52,7.62,7.62,0,0,1,2.71.45,6.26,6.26,0,0,1,2,1.23,8,8,0,0,1,1.07-.94,5.7,5.7,0,0,1,1-.58,4.13,4.13,0,0,1,.84-.28,3.86,3.86,0,0,1,.71-.08,2.17,2.17,0,0,1,.84.15,1.69,1.69,0,0,1,.57.39,1.47,1.47,0,0,1,.33.55,1.61,1.61,0,0,1,.11.61,1.71,1.71,0,0,1-.4,1.12,1.34,1.34,0,0,1-1.12.5,1.75,1.75,0,0,1-1.72-1.46,3.61,3.61,0,0,0-.73.38,6.15,6.15,0,0,0-.68.52A6.12,6.12,0,0,1,547,69.3a7,7,0,0,1,.3,2,7.08,7.08,0,0,1-.46,2.56A6.15,6.15,0,0,1,545.51,76a6.57,6.57,0,0,1-2.19,1.44,7.76,7.76,0,0,1-3,.52,8.11,8.11,0,0,1-2.15-.27,6.76,6.76,0,0,1-1.75-.76,6.82,6.82,0,0,0-.76,1.22,2.66,2.66,0,0,0-.26,1.08,1.26,1.26,0,0,0,.56,1,3.32,3.32,0,0,0,1.9.41h.89l1.49,0,1.62,0h1.22a12.53,12.53,0,0,1,2.54.24,5.48,5.48,0,0,1,2,.83,4.11,4.11,0,0,1,1.3,1.55,5.4,5.4,0,0,1,.46,2.38,6.76,6.76,0,0,1-.7,3.12,6.89,6.89,0,0,1-2,2.37,9,9,0,0,1-3,1.49,12.94,12.94,0,0,1-3.78.52,12.08,12.08,0,0,1-3.17-.38,7.88,7.88,0,0,1-2.32-1,4.49,4.49,0,0,1-1.42-1.43,3.21,3.21,0,0,1-.49-1.69A3.29,3.29,0,0,1,533,87a4.93,4.93,0,0,1,1.34-1.47,4.73,4.73,0,0,1,.64.34C535.2,86,535.4,86.16,535.61,86.33Zm8.12-14.94a15.62,15.62,0,0,0-.15-2.35,4,4,0,0,0-.5-1.56,2.12,2.12,0,0,0-1-.87,3.74,3.74,0,0,0-1.57-.28,3.79,3.79,0,0,0-1.58.28,2.17,2.17,0,0,0-1,.89,4.47,4.47,0,0,0-.54,1.61,16.54,16.54,0,0,0-.15,2.42,17.34,17.34,0,0,0,.14,2.37,4.14,4.14,0,0,0,.52,1.57,2.08,2.08,0,0,0,1,.87,4.62,4.62,0,0,0,3.14,0,2.17,2.17,0,0,0,1-.89,4.89,4.89,0,0,0,.53-1.62A16.4,16.4,0,0,0,543.73,71.39Z"/><path class="cls-2" d="M568,76.82a7.57,7.57,0,0,1-2.42,4.34,7.06,7.06,0,0,1-4.67,1.5,8.54,8.54,0,0,1-3.52-.69,7.66,7.66,0,0,1-2.61-1.89,8,8,0,0,1-1.64-2.78,10.43,10.43,0,0,1,0-6.86,8.39,8.39,0,0,1,1.67-2.86,8.14,8.14,0,0,1,2.59-1.92A7.8,7.8,0,0,1,560.8,65a7.6,7.6,0,0,1,3.09.6,6.78,6.78,0,0,1,2.32,1.69,7.66,7.66,0,0,1,1.48,2.59,10.76,10.76,0,0,1,.55,3.3H556.47c0,.22,0,.37,0,.44v.13a16.76,16.76,0,0,0,.34,3.75,5.89,5.89,0,0,0,1,2.25,3.12,3.12,0,0,0,1.46,1.11,5.88,5.88,0,0,0,1.88.29,6.65,6.65,0,0,0,1.81-.25,4.2,4.2,0,0,0,1.53-.82,5.26,5.26,0,0,0,1.21-1.44,8.45,8.45,0,0,0,.83-2.14,5.32,5.32,0,0,1,.78.14A5.79,5.79,0,0,1,568,76.82Zm-3.69-5.21A12.14,12.14,0,0,0,564,69a4.18,4.18,0,0,0-.76-1.57,2.29,2.29,0,0,0-1.1-.77,4.42,4.42,0,0,0-1.4-.21,4.52,4.52,0,0,0-1.49.24,2.93,2.93,0,0,0-1.24.82,4.57,4.57,0,0,0-.91,1.58,10.16,10.16,0,0,0-.5,2.54Z"/><path class="cls-2" d="M577.72,80.55h2.63v1.56h-9.08V80.55h2.93V67h-2.93V65.47h6.45v2.84h.07a6,6,0,0,1,2.11-2.49,6.15,6.15,0,0,1,3.42-.87,5.43,5.43,0,0,1,3.38.93,4.64,4.64,0,0,1,1.6,2.89h.08a6.31,6.31,0,0,1,2.18-2.86,6.15,6.15,0,0,1,3.56-1A5.13,5.13,0,0,1,598,66.32a5.59,5.59,0,0,1,1.28,3.94V80.55h2.83v1.56h-9V80.55h2.63V69.71a3.17,3.17,0,0,0-.7-2.27,2.63,2.63,0,0,0-2-.74,3.85,3.85,0,0,0-1.77.42,4.27,4.27,0,0,0-1.47,1.3,6.88,6.88,0,0,0-1,2.25,12.82,12.82,0,0,0-.36,3.24v6.64h2.63v1.56h-8.79V80.55H585V69.69a3.14,3.14,0,0,0-.7-2.25,2.63,2.63,0,0,0-2-.74,3.85,3.85,0,0,0-1.77.42,4.18,4.18,0,0,0-1.47,1.3,6.88,6.88,0,0,0-1,2.25,12.82,12.82,0,0,0-.36,3.24Z"/><path class="cls-2" d="M620.12,76.82a7.62,7.62,0,0,1-2.42,4.34,7.06,7.06,0,0,1-4.67,1.5,8.54,8.54,0,0,1-3.52-.69,7.56,7.56,0,0,1-2.61-1.89,8.18,8.18,0,0,1-1.65-2.78,10.61,10.61,0,0,1,0-6.86,8.73,8.73,0,0,1,1.67-2.86,8.3,8.3,0,0,1,2.6-1.92,7.8,7.8,0,0,1,3.39-.71,7.6,7.6,0,0,1,3.09.6,6.78,6.78,0,0,1,2.32,1.69,7.66,7.66,0,0,1,1.48,2.59,10.76,10.76,0,0,1,.55,3.3H608.59c0,.22,0,.37,0,.44v.13a16.76,16.76,0,0,0,.34,3.75,5.89,5.89,0,0,0,1,2.25,3.14,3.14,0,0,0,1.47,1.11,5.88,5.88,0,0,0,1.88.29,6.65,6.65,0,0,0,1.81-.25,4.2,4.2,0,0,0,1.53-.82,5.06,5.06,0,0,0,1.2-1.44,7.77,7.77,0,0,0,.83-2.14,5.22,5.22,0,0,1,.79.14A5.79,5.79,0,0,1,620.12,76.82Zm-3.69-5.21a11.47,11.47,0,0,0-.35-2.63,4,4,0,0,0-.75-1.57,2.29,2.29,0,0,0-1.1-.77,4.42,4.42,0,0,0-1.4-.21,4.52,4.52,0,0,0-1.49.24,2.93,2.93,0,0,0-1.24.82,4.41,4.41,0,0,0-.91,1.58,10.16,10.16,0,0,0-.5,2.54Z"/><path class="cls-2" d="M629.84,80.55h2.64v1.56H623.4V80.55h2.93V67H623.4V65.47h6.44v2.84h.08a6.13,6.13,0,0,1,2.15-2.49,6.32,6.32,0,0,1,3.48-.87,5.28,5.28,0,0,1,4,1.37,5.51,5.51,0,0,1,1.31,3.94V80.55h2.83v1.56h-9V80.55h2.64V69.71a3.12,3.12,0,0,0-.73-2.27,2.72,2.72,0,0,0-2-.74,4.15,4.15,0,0,0-1.85.42,4,4,0,0,0-1.5,1.3,6.89,6.89,0,0,0-1,2.25,12.31,12.31,0,0,0-.38,3.24Z"/><path class="cls-2" d="M658.05,78.21a6.31,6.31,0,0,1-1.74,3.37A4.84,4.84,0,0,1,653,82.66a6.86,6.86,0,0,1-2-.27,3.76,3.76,0,0,1-1.52-.87,4,4,0,0,1-1-1.52,6.78,6.78,0,0,1-.33-2.26V67h-2.93V65.47h2.93V61.69l3.51-.59v4.37h5.08V67h-5.08V78.17a4.77,4.77,0,0,0,.15,1.31,1.79,1.79,0,0,0,.42.8,1.39,1.39,0,0,0,.64.4,3.11,3.11,0,0,0,.84.11,2.71,2.71,0,0,0,1.08-.19,2.08,2.08,0,0,0,.79-.57,3.42,3.42,0,0,0,.58-.94,9.91,9.91,0,0,0,.46-1.31,5.4,5.4,0,0,1,.72.16A2.91,2.91,0,0,1,658.05,78.21Z"/><path class="cls-2" d="M434.81,126h1.36a12.52,12.52,0,0,0,.86,3.71,6.88,6.88,0,0,0,1.59,2.36,5.58,5.58,0,0,0,2.17,1.25,9.16,9.16,0,0,0,2.59.36,8.53,8.53,0,0,0,2.8-.41,5.2,5.2,0,0,0,1.92-1.15,4.29,4.29,0,0,0,1.09-1.75,7.09,7.09,0,0,0,.34-2.26,5.44,5.44,0,0,0-.51-2.51,4.84,4.84,0,0,0-1.41-1.68,9.37,9.37,0,0,0-2.18-1.2c-.85-.34-1.78-.69-2.79-1.06s-2-.74-2.9-1.15a9.56,9.56,0,0,1-2.43-1.5,6.4,6.4,0,0,1-1.67-2.2,7.5,7.5,0,0,1-.62-3.23,9.08,9.08,0,0,1,.59-3.32,6.91,6.91,0,0,1,1.73-2.57,8,8,0,0,1,2.87-1.65,12.24,12.24,0,0,1,4-.59q.9,0,1.86.09c.63.06,1.27.15,1.9.27s1.25.25,1.87.42,1.19.34,1.73.53l.24,7.09h-1.37a10.73,10.73,0,0,0-.78-3.44,6.18,6.18,0,0,0-1.47-2.08,4.87,4.87,0,0,0-1.94-1A8.36,8.36,0,0,0,444,107a8.22,8.22,0,0,0-2.57.36,4.82,4.82,0,0,0-1.82,1,4.27,4.27,0,0,0-1.08,1.64,6,6,0,0,0-.37,2.18,5,5,0,0,0,.51,2.4,4.92,4.92,0,0,0,1.44,1.65,9.73,9.73,0,0,0,2.22,1.23c.87.36,1.82.74,2.87,1.13s1.88.75,2.8,1.16a9.93,9.93,0,0,1,2.46,1.54,7.16,7.16,0,0,1,1.75,2.29,7.67,7.67,0,0,1,.66,3.37,8.46,8.46,0,0,1-.67,3.47A6.84,6.84,0,0,1,450.3,133a8.66,8.66,0,0,1-3.07,1.58,14,14,0,0,1-4.1.55c-.67,0-1.35,0-2.06-.1a21,21,0,0,1-2.11-.29q-1.05-.19-2-.45a16.33,16.33,0,0,1-1.86-.58Z"/><path class="cls-2" d="M472.15,129.15a7.57,7.57,0,0,1-2.42,4.34,7.06,7.06,0,0,1-4.67,1.5,8.54,8.54,0,0,1-3.52-.69,7.76,7.76,0,0,1-2.61-1.88,8.13,8.13,0,0,1-1.64-2.79,10,10,0,0,1-.57-3.39,10.24,10.24,0,0,1,.59-3.47,8.25,8.25,0,0,1,1.67-2.85,8,8,0,0,1,2.59-1.93,7.94,7.94,0,0,1,3.39-.71,7.6,7.6,0,0,1,3.09.6,6.78,6.78,0,0,1,2.32,1.69,7.76,7.76,0,0,1,1.48,2.59,10.76,10.76,0,0,1,.55,3.3H460.63c0,.22,0,.37,0,.44V126a16.64,16.64,0,0,0,.34,3.75,6,6,0,0,0,1,2.25,3.05,3.05,0,0,0,1.46,1.11,5.88,5.88,0,0,0,1.88.29,6.24,6.24,0,0,0,1.81-.25,4.33,4.33,0,0,0,1.53-.81,5.31,5.31,0,0,0,1.21-1.45,8.31,8.31,0,0,0,.83-2.14,6.34,6.34,0,0,1,1.52.37Zm-3.69-5.21a12.14,12.14,0,0,0-.34-2.63,4.18,4.18,0,0,0-.76-1.57,2.29,2.29,0,0,0-1.1-.77,4.42,4.42,0,0,0-1.4-.21,4.52,4.52,0,0,0-1.49.24,2.93,2.93,0,0,0-1.24.82,4.66,4.66,0,0,0-.91,1.58,10.16,10.16,0,0,0-.5,2.54Z"/><path class="cls-2" d="M485,134.45h-9.57v-1.57h2.93V119.37h-2.93v-1.56h6.45v3H482a7.07,7.07,0,0,1,.87-1.39,6.69,6.69,0,0,1,1.15-1.11,5.16,5.16,0,0,1,1.32-.72,4.18,4.18,0,0,1,1.43-.25,2.74,2.74,0,0,1,1.93.68,2.43,2.43,0,0,1,.77,1.9,2.26,2.26,0,0,1-.59,1.66,2,2,0,0,1-1.52.6,1.92,1.92,0,0,1-1.5-.57,2,2,0,0,1-.52-1.42,3,3,0,0,1,.18-1,4.16,4.16,0,0,0-1.42.87,5.93,5.93,0,0,0-1.14,1.5,8.19,8.19,0,0,0-.76,2.08,11.72,11.72,0,0,0-.27,2.62v6.58H485Z"/><path class="cls-2" d="M498.73,134.72l-6.89-15.35h-2.91v-1.56h9.49v1.56h-2.74l4.85,10.84h.08l4.82-10.84H502.7v-1.56h7.22v1.56h-2.85l-6.78,15.35Z"/><path class="cls-2" d="M516.86,132.88h2.93v1.57h-9.38v-1.57h2.93V119.37h-2.93v-1.56h6.45ZM515.1,112.3a2.52,2.52,0,0,1-.93-.17,2.15,2.15,0,0,1-.74-.48,2.07,2.07,0,0,1-.5-.73,2.48,2.48,0,0,1,0-1.88,2.29,2.29,0,0,1,.5-.75,2.2,2.2,0,0,1,.74-.48,2.36,2.36,0,0,1,.92-.18,2.59,2.59,0,0,1,.92.17,2.44,2.44,0,0,1,.75.47,2.36,2.36,0,0,1,.5.74,2.54,2.54,0,0,1,.17.94,2.42,2.42,0,0,1-.18,1,2.25,2.25,0,0,1-.5.73,2.15,2.15,0,0,1-.74.48A2.39,2.39,0,0,1,515.1,112.3Z"/><path class="cls-2" d="M537.81,129a7.82,7.82,0,0,1-2.41,4.45,6.83,6.83,0,0,1-4.58,1.5,8.51,8.51,0,0,1-3.5-.69,7.79,7.79,0,0,1-2.64-1.88,8.49,8.49,0,0,1-1.67-2.78,9.57,9.57,0,0,1-.59-3.36,9.86,9.86,0,0,1,.62-3.49,8.41,8.41,0,0,1,1.75-2.86,8.23,8.23,0,0,1,2.72-1.94,8.66,8.66,0,0,1,3.55-.71,8.52,8.52,0,0,1,2.54.36,6.71,6.71,0,0,1,2,1,4.69,4.69,0,0,1,1.31,1.4,3.32,3.32,0,0,1,.46,1.68,2.34,2.34,0,0,1-.21,1,1.9,1.9,0,0,1-.54.67,2.1,2.1,0,0,1-.71.37,2.54,2.54,0,0,1-.74.12,2,2,0,0,1-1.52-.61,2,2,0,0,1-.55-1.44,2.72,2.72,0,0,1,.25-1.09,3.37,3.37,0,0,1,.78-1.1,3.59,3.59,0,0,0-1.53-.71,8,8,0,0,0-1.59-.19,6.11,6.11,0,0,0-1.77.25,3,3,0,0,0-1.5,1,5.88,5.88,0,0,0-1,2.26,15.67,15.67,0,0,0-.39,3.9,15.29,15.29,0,0,0,.36,3.68,5.65,5.65,0,0,0,1,2.19,3.17,3.17,0,0,0,1.49,1.08,5.93,5.93,0,0,0,1.88.28,5.74,5.74,0,0,0,1.73-.25,4.38,4.38,0,0,0,1.5-.81,5.08,5.08,0,0,0,1.19-1.47,8.6,8.6,0,0,0,.83-2.23,5.29,5.29,0,0,1,.78.13A7.14,7.14,0,0,1,537.81,129Z"/><path class="cls-2" d="M556.27,129.15a7.57,7.57,0,0,1-2.42,4.34,7.06,7.06,0,0,1-4.67,1.5,8.49,8.49,0,0,1-3.51-.69,7.71,7.71,0,0,1-2.62-1.88,8.3,8.3,0,0,1-1.64-2.79,10,10,0,0,1-.57-3.39,10.24,10.24,0,0,1,.59-3.47,8.25,8.25,0,0,1,1.67-2.85,8.13,8.13,0,0,1,2.59-1.93,7.94,7.94,0,0,1,3.39-.71,7.6,7.6,0,0,1,3.09.6,6.69,6.69,0,0,1,2.32,1.69,7.76,7.76,0,0,1,1.48,2.59,10.76,10.76,0,0,1,.55,3.3H544.75c0,.22,0,.37,0,.44V126a16.64,16.64,0,0,0,.34,3.75,6,6,0,0,0,1,2.25,3.05,3.05,0,0,0,1.46,1.11,6,6,0,0,0,1.89.29,6.22,6.22,0,0,0,1.8-.25,4.47,4.47,0,0,0,1.54-.81,5.47,5.47,0,0,0,1.2-1.45,8.31,8.31,0,0,0,.83-2.14,6.34,6.34,0,0,1,1.52.37Zm-3.69-5.21a11.54,11.54,0,0,0-.34-2.63,4.33,4.33,0,0,0-.75-1.57,2.36,2.36,0,0,0-1.11-.77,4.4,4.4,0,0,0-1.39-.21,4.54,4.54,0,0,0-1.5.24,3,3,0,0,0-1.24.82,4.66,4.66,0,0,0-.91,1.58,10.64,10.64,0,0,0-.5,2.54Z"/><path class="cls-2" d="M571.09,123.33a7.65,7.65,0,0,0-.42-2.14,3.79,3.79,0,0,0-.86-1.43,3.18,3.18,0,0,0-1.32-.79,6,6,0,0,0-1.77-.25,6.22,6.22,0,0,0-1.41.15,3.49,3.49,0,0,0-1.11.45,2.13,2.13,0,0,0-.73.79,2.41,2.41,0,0,0-.27,1.17,2.36,2.36,0,0,0,.25,1.13,2.22,2.22,0,0,0,.8.78,8,8,0,0,0,1.42.65c.58.21,1.3.46,2.14.74.68.24,1.35.49,2,.75a7.8,7.8,0,0,1,1.78,1,4.68,4.68,0,0,1,1.28,1.42,3.88,3.88,0,0,1,.49,2,4.34,4.34,0,0,1-.61,2.34,4.92,4.92,0,0,1-1.6,1.64,7.41,7.41,0,0,1-2.26,1,10.76,10.76,0,0,1-2.6.31c-.47,0-1,0-1.49-.07s-1.05-.13-1.57-.22-1-.2-1.46-.32-.87-.25-1.22-.38l-.14-5.67h1.35a10,10,0,0,0,.42,2.49,4.08,4.08,0,0,0,.9,1.62,3.1,3.1,0,0,0,1.4.85,6.67,6.67,0,0,0,2,.26,7.55,7.55,0,0,0,1.55-.15,3.81,3.81,0,0,0,1.24-.47,2.26,2.26,0,0,0,.83-.85,2.51,2.51,0,0,0,.3-1.27,2.22,2.22,0,0,0-.23-1.06,2.29,2.29,0,0,0-.74-.75,7,7,0,0,0-1.31-.63l-1.92-.68c-.74-.26-1.45-.53-2.14-.81a7.81,7.81,0,0,1-1.8-1,4.5,4.5,0,0,1-1.25-1.43,4.2,4.2,0,0,1-.47-2.05,4.55,4.55,0,0,1,.55-2.3,4.8,4.8,0,0,1,1.45-1.59,6.39,6.39,0,0,1,2.09-.92,10.46,10.46,0,0,1,2.45-.29,12.73,12.73,0,0,1,1.35.07c.47,0,.93.1,1.4.18s.9.17,1.32.27.81.19,1.17.28l.13,5.25Z"/><rect class="cls-2" x="342.83" y="65.97" width="135.94" height="4" transform="translate(478.78 -342.83) rotate(90)"/></g></g></svg>